# xmcd
#
# Track frame offsets:
#	150
#	16318
#	36658
#	52319
#	66934
#	85548
#	100880
#	116721
#	133198
#	147228
#	160796
#	178031
#	199317
#	219163
#	233291
#	247670
#	260309
#
# Disc length: 3678 seconds
#
# Revision: 1
# Processed by: cddbd v1.5.2PL0 Copyright (c) Steve Scherf et al.
# Submitted via: audiograbber 1.83.01
#
DISCID=eb0e5c11
DTITLE=Rose - Les souvenirs sous ma frange
DYEAR=2009
DGENRE=
TTITLE0=Comment c'était déjà
TTITLE1=Chez moi
TTITLE2=Yes We Did
TTITLE3=De ma fenêtre
TTITLE4=Ne partez pas
TTITLE5=Comme un marin
TTITLE6=Hannah
TTITLE7=Ma corde au clou
TTITLE8=J'ai 18 ans
TTITLE9=Quitte-moi
TTITLE10=Le mal de l'aube
TTITLE11=Les souvenirs sous ma frange
TTITLE12=Qui peut dire
TTITLE13=Qu'est-ce-qu'on attend de moi
TTITLE14=Les frangines
TTITLE15=Je guéris
TTITLE16=Yes We Did (Alternative Version)
EXTD=
EXTT0=
EXTT1=
EXTT2=
EXTT3=
EXTT4=
EXTT5=
EXTT6=
EXTT7=
EXTT8=
EXTT9=
EXTT10=
EXTT11=
EXTT12=
EXTT13=
EXTT14=
EXTT15=
EXTT16=
PLAYORDER=
